:FULLY-SPECIFIED
:FORCE-ALL-JOINTS-BE-3DOF
:DEGREES
2344
root 0.676706 14.0754 -18.4184 939.652 -34.4643 147.153
lfemur -6.01548 -5.28813 -1.46788
ltibia 36.5132 0 0
lfoot -11.4454 26.8411 0
ltoes -44.0879 0 0
rfemur -66.8879 -11.9936 13.0345
rtibia 78.7626 0 0
rfoot -11.0751 -16.6959 0
rtoes 5.01516 0 0
lowerback 19.3311 3.3423 -3.5005
upperback 0.1489 3.43755 -0.604392
thorax -10.8922 1.72416 0.355308
lowerneck -4.84014 -2.50471 -4.87572
upperneck 2.79611 -2.96521 0.349966
head 2.07592 -1.54542 0.932902
lclavicle -1.11315e-13 3.18055e-15 0
lhumerus -30.4522 -19.9187 82.684
lradius 101.698 0 0
lwrist 45.2225 0 0
lhand -24.61 403.39 0
lfingers 7.12502 0 0
lthumb 1.88888 -646.711 0
rclavicle -1.11315e-13 3.18055e-15 0
rhumerus 44.9209 14.5522 -50.9535
rradius 49.5392 0 0
rwrist 5.95004 0 0
rhand -6.91581 -398.249 0
rfingers 7.12502 0 0
rthumb 18.9496 292.68 0
2345
root 0.670473 14.1003 -18.5749 943.863 -33.0931 143.064
lfemur -7.30307 -4.98681 -2.00346
ltibia 38.0513 0 0
lfoot -11.2128 26.68 0
ltoes -43.3082 0 0
rfemur -66.3057 -11.5266 13.2721
rtibia 78.6685 0 0
rfoot -11.3279 -17.011 0
rtoes 4.70907 0 0
lowerback 19.293 3.29245 -3.33131
upperback 0.105854 3.41842 -0.559568
thorax -10.9119 1.70872 0.314433
lowerneck -4.83692 -2.155 -4.59775
upperneck 2.93959 -2.48965 0.0495668
head 2.13521 -1.31558 0.818178
lclavicle -1.08895e-13 3.18055e-15 0
lhumerus -27.5771 -20.6384 81.5218
lradius 101.999 0 0
lwrist 42.972 0 0
lhand -25.0056 403.352 0
lfingers 7.12502 0 0
lthumb 1.50685 -646.756 0
rclavicle -1.08895e-13 3.18055e-15 0
rhumerus 43.6405 15.8564 -51.5201
rradius 50.848 0 0
rwrist 5.27521 0 0
rhand -6.71404 -398.314 0
rfingers 7.12502 0 0
rthumb 19.1434 292.637 0
2346
root 0.664239 14.1253 -18.7313 948.073 -31.7219 138.976
lfemur -8.59067 -4.68548 -2.53905
ltibia 39.5893 0 0
lfoot -10.9802 26.5189 0
ltoes -42.5285 0 0
rfemur -65.7234 -11.0597 13.5098
rtibia 78.5745 0 0
rfoot -11.5807 -17.3261 0
rtoes 4.40299 0 0
lowerback 19.2549 3.24261 -3.16213
upperback 0.0628073 3.39928 -0.514744
thorax -10.9316 1.69329 0.273559
lowerneck -4.8337 -1.8053 -4.31978
upperneck 3.08307 -2.01409 -0.250832
head 2.19451 -1.08574 0.703453
lclavicle -1.06476e-13 3.18055e-15 0
lhumerus -24.7021 -21.358 80.3597
lradius 102.301 0 0
lwrist 40.7214 0 0
lhand -25.4013 403.313 0
lfingers 7.12502 0 0
lthumb 1.12483 -646.801 0
rclavicle -1.06476e-13 3.18055e-15 0
rhumerus 42.3601 17.1606 -52.0867
rradius 52.1568 0 0
rwrist 4.60039 0 0
rhand -6.51226 -398.38 0
rfingers 7.12502 0 0
rthumb 19.3371 292.594 0
2347
root 0.658006 14.1502 -18.8878 952.283 -30.3507 134.888
lfemur -9.87827 -4.38416 -3.07464
ltibia 41.1273 0 0
lfoot -10.7476 26.3578 0
ltoes -41.7488 0 0
rfemur -65.1412 -10.5927 13.7475
rtibia 78.4804 0 0
rfoot -11.8335 -17.6412 0
rtoes 4.0969 0 0
lowerback 19.2168 3.19277 -2.99294
upperback 0.0197607 3.38015 -0.46992
thorax -10.9513 1.67785 0.232685
lowerneck -4.83048 -1.45559 -4.04181
upperneck 3.22655 -1.53853 -0.551231
head 2.2538 -0.855904 0.588728
lclavicle -1.04057e-13 3.18055e-15 0
lhumerus -21.8271 -22.0777 79.1976
lradius 102.603 0 0
lwrist 38.4708 0 0
lhand -25.797 403.275 0
lfingers 7.12502 0 0
lthumb 0.742798 -646.846 0
rclavicle -1.04057e-13 3.18055e-15 0
rhumerus 41.0797 18.4647 -52.6533
rradius 53.4656 0 0
rwrist 3.92556 0 0
rhand -6.31049 -398.445 0
rfingers 7.12502 0 0
rthumb 19.5308 292.551 0
